<svg width="16" height="16" viewBox="0 0 16 16" fill="none" xmlns="http://www.w3.org/2000/svg">
<path d="M8 0C3.58594 0 0 3.58594 0 8C0 12.4141 3.58594 16 8 16H12V14.3984H8C4.52734 14.3984 1.60156 11.4727 1.60156 8C1.60156 4.52734 4.52734 1.60156 8 1.60156C11.4727 1.60156 14.3984 4.52734 14.3984 8V9.14453C14.3984 9.77734 13.832 10.3984 13.1992 10.3984C12.5664 10.3984 12 9.77734 12 9.14453V8C12 5.79297 10.207 4 8 4C5.79297 4 4 5.79297 4 8C4 10.207 5.79297 12 8 12C9.10547 12 10.1133 11.5508 10.832 10.8242C11.3516 11.5352 12.2461 12 13.1992 12C14.7773 12 16 10.7188 16 9.14453V8C16 3.58594 12.4141 0 8 0ZM8 10.3984C6.67188 10.3984 5.60156 9.32812 5.60156 8C5.60156 6.67188 6.67188 5.60156 8 5.60156C9.32812 5.60156 10.3984 6.67188 10.3984 8C10.3984 9.32812 9.32812 10.3984 8 10.3984Z" fill="#EDF7F6"/>
</svg>
