<svg xmlns="http://www.w3.org/2000/svg" viewBox="0 0 65.58 65.69"><defs><style>.cls-1{font-size:10.36px;font-family:Inter-Regular, Inter;}.cls-1,.cls-2{fill:#fff;}</style></defs><g id="Layer_2" data-name="Layer 2"><g id="Layer_2-2" data-name="Layer 2"><text class="cls-1" transform="translate(46.09 50.86) rotate(45)">S</text><g id="Compass"><path class="cls-2" d="M7.25,53.4A32.7,32.7,0,0,1,10.88,8.52c14.48-13,33.4-9.26,42.49-1.19l-.78.78h0A30.59,30.59,0,0,0,42.31,2.73C32-.22,22.42,1.29,13.84,7.78h0A31.53,31.53,0,0,0,6.65,50.56c.28.42,1.48,2,1.48,2Z"/><path class="cls-2" d="M58.31,12.27a32.71,32.71,0,0,1-3.6,44.92c-14.5,12.94-33.41,9.26-42.49,1.17l.79-.79A30.23,30.23,0,0,0,23.29,63c10.3,3,19.88,1.45,28.44-5h0a31.53,31.53,0,0,0,7.21-42.78,17.6,17.6,0,0,0-1.46-2c.3-.3.57-.58.83-.89Z"/><path id="needle" class="cls-2" d="M37.47,35.08c-1.66,2.25-4,3.64-6.1,5.26C25.78,44.61,7.62,58.06,7.62,58.06s17.19-23,20.9-27.8a16.25,16.25,0,0,1,3.11-2.68C39.34,21.75,57.26,8.37,57.26,8.37S43.38,27.08,37.47,35.09Zm-7.39.59a3.61,3.61,0,0,0,5.08.13,3.7,3.7,0,0,0,.07-5.11,3.62,3.62,0,0,0-5.06,0,3.54,3.54,0,0,0-.15,5Z"/></g></g></g></svg>