<svg width="16" height="16" viewBox="0 0 16 16" fill="none" xmlns="http://www.w3.org/2000/svg">
<path d="M8 5.33203C7.29297 5.33203 6.61328 5.61328 6.11328 6.11328C5.61328 6.61328 5.33203 7.29297 5.33203 8C5.33203 8.70703 5.61328 9.38672 6.11328 9.88672C6.61328 10.3867 7.29297 10.668 8 10.668C8.70703 10.668 9.38672 10.3867 9.88672 9.88672C10.3867 9.38672 10.668 8.70703 10.668 8C10.668 7.29297 10.3867 6.61328 9.88672 6.11328C9.38672 5.61328 8.70703 5.33203 8 5.33203Z" fill="#EDF7F6"/>
<path fill-rule="evenodd" clip-rule="evenodd" d="M4.80078 0C3.52734 0 2.30469 0.503906 1.40625 1.40625C0.503906 2.30469 0 3.52734 0 4.80078V11.1992C0 12.4727 0.503906 13.6953 1.40625 14.5938C2.30469 15.4961 3.52734 16 4.80078 16H11.1992C12.4727 16 13.6953 15.4961 14.5938 14.5938C15.4961 13.6953 16 12.4727 16 11.1992V4.80078C16 3.52734 15.4961 2.30469 14.5938 1.40625C13.6953 0.503906 12.4727 0 11.1992 0H4.80078ZM4.26562 8C4.26562 7.01172 4.66016 6.05859 5.35938 5.35938C6.05859 4.66016 7.01172 4.26562 8 4.26562C8.98828 4.26562 9.94141 4.66016 10.6406 5.35938C11.3398 6.05859 11.7344 7.01172 11.7344 8C11.7344 8.98828 11.3398 9.94141 10.6406 10.6406C9.94141 11.3398 8.98828 11.7344 8 11.7344C7.01172 11.7344 6.05859 11.3398 5.35938 10.6406C4.66016 9.94141 4.26562 8.98828 4.26562 8ZM11.7344 4.26562H12.8008V3.19922H11.7344V4.26562Z" fill="#EDF7F6"/>
</svg>
