<svg version="1.1" id="visual" xmlns="http://www.w3.org/2000/svg" xmlns:xlink="http://www.w3.org/1999/xlink" x="0px" y="0px"
	 viewBox="0 0 900 450" style="enable-background:new 0 0 900 450;" xml:space="preserve">
<style type="text/css">
	.st0{fill:#232941;}
	.st1{fill:#F28482;}
	.st2{fill:#885279;}
</style>
<rect class="st0" width="900" height="450"/>
<path class="st1" d="M0,310l21.5,2.8c21.5,2.7,64.5,8.4,107.3,8.5c42.9,0.2,85.5-5.2,128.4-2.1c42.8,3,85.8,14.5,128.6,12
	c42.9-2.4,85.5-18.7,128.4-18.4c42.8,0.2,85.8,17,128.6,25.2c42.9,8.3,85.5,8,128.4,2.4c42.8-5.6,85.8-16.5,107.3-22L900,313v138
	h-21.5c-21.5,0-64.5,0-107.3,0c-42.9,0-85.5,0-128.4,0c-42.8,0-85.8,0-128.6,0c-42.9,0-85.5,0-128.4,0c-42.8,0-85.8,0-128.6,0
	c-42.9,0-85.5,0-128.4,0c-42.8,0-85.8,0-107.3,0H0V310z"/>
<path class="st2" d="M0,362.6l21.5,3.2c21.5,3.1,64.5,9.5,107.3,5.3c42.9-4.2,85.5-19,128.4-19c42.8,0,85.8,14.8,128.6,17.9
	c42.9,3.2,85.5-5.2,128.4-5.7c42.8-0.5,85.8,6.9,128.6,6.2c42.9-0.6,85.5-9.3,128.4-14.5c42.8-5.2,85.8-7,107.3-7.9l21.5-0.9V451
	h-21.5c-21.5,0-64.5,0-107.3,0c-42.9,0-85.5,0-128.4,0c-42.8,0-85.8,0-128.6,0c-42.9,0-85.5,0-128.4,0c-42.8,0-85.8,0-128.6,0
	c-42.9,0-85.5,0-128.4,0c-42.8,0-85.8,0-107.3,0H0V362.6z"/>
<path class="st0" d="M0,414.4l21.5-4c21.5-3.9,64.5-11.8,107.3-13.8c42.9-2.1,85.5,1.8,128.4,6.6c42.8,4.9,85.8,10.7,128.6,9.5
	c42.9-1.1,85.5-9.2,128.4-15.5c42.8-6.2,85.8-10.5,128.6-5.9c42.9,4.7,85.5,18.4,128.4,17.3c42.8-1.1,85.8-17.1,107.3-25.2l21.5-8
	V451h-21.5c-21.5,0-64.5,0-107.3,0c-42.9,0-85.5,0-128.4,0c-42.8,0-85.8,0-128.6,0c-42.9,0-85.5,0-128.4,0c-42.8,0-85.8,0-128.6,0
	c-42.9,0-85.5,0-128.4,0c-42.8,0-85.8,0-107.3,0H0V414.4z"/>
</svg>
