<svg id="visual" viewBox="0 0 900 450" width="900" height="450" xmlns="http://www.w3.org/2000/svg" xmlns:xlink="http://www.w3.org/1999/xlink" version="1.1"><rect x="0" y="0" width="900" height="450" fill="#232941"></rect><path d="M0 266L21.5 269.7C43 273.3 86 280.7 128.8 280.8C171.7 281 214.3 274 257.2 278C300 282 343 297 385.8 293.8C428.7 290.7 471.3 269.3 514.2 269.7C557 270 600 292 642.8 302.8C685.7 313.7 728.3 313.3 771.2 306C814 298.7 857 284.3 878.5 277.2L900 270L900 451L878.5 451C857 451 814 451 771.2 451C728.3 451 685.7 451 642.8 451C600 451 557 451 514.2 451C471.3 451 428.7 451 385.8 451C343 451 300 451 257.2 451C214.3 451 171.7 451 128.8 451C86 451 43 451 21.5 451L0 451Z" fill="#f28482"></path><path d="M0 335L21.5 339.2C43 343.3 86 351.7 128.8 346.2C171.7 340.7 214.3 321.3 257.2 321.3C300 321.3 343 340.7 385.8 344.8C428.7 349 471.3 338 514.2 337.3C557 336.7 600 346.3 642.8 345.5C685.7 344.7 728.3 333.3 771.2 326.5C814 319.7 857 317.3 878.5 316.2L900 315L900 451L878.5 451C857 451 814 451 771.2 451C728.3 451 685.7 451 642.8 451C600 451 557 451 514.2 451C471.3 451 428.7 451 385.8 451C343 451 300 451 257.2 451C214.3 451 171.7 451 128.8 451C86 451 43 451 21.5 451L0 451Z" fill="#885279"></path><path d="M0 403L21.5 397.8C43 392.7 86 382.3 128.8 379.7C171.7 377 214.3 382 257.2 388.3C300 394.7 343 402.3 385.8 400.8C428.7 399.3 471.3 388.7 514.2 380.5C557 372.3 600 366.7 642.8 372.8C685.7 379 728.3 397 771.2 395.5C814 394 857 373 878.5 362.5L900 352L900 451L878.5 451C857 451 814 451 771.2 451C728.3 451 685.7 451 642.8 451C600 451 557 451 514.2 451C471.3 451 428.7 451 385.8 451C343 451 300 451 257.2 451C214.3 451 171.7 451 128.8 451C86 451 43 451 21.5 451L0 451Z" fill="#232941"></path></svg>