<svg width="16" height="16" viewBox="0 0 16 16" fill="none" xmlns="http://www.w3.org/2000/svg">
<path d="M16 8C16 10.1211 15.1562 12.1562 13.6562 13.6562C12.1562 15.1562 10.1211 16 8 16C5.87891 16 3.84375 15.1562 2.34375 13.6562C0.84375 12.1562 0 10.1211 0 8C0 5.87891 0.84375 3.84375 2.34375 2.34375C3.84375 0.84375 5.87891 0 8 0C10.1211 0 12.1562 0.84375 13.6562 2.34375C15.1562 3.84375 16 5.87891 16 8ZM8.28516 5.90625C7.50781 6.23047 5.95312 6.89844 3.62109 7.91406C3.24219 8.06641 3.04297 8.21484 3.02734 8.35938C2.99609 8.60156 3.30078 8.69531 3.71484 8.82812L3.89062 8.88281C4.30078 9.01562 4.84766 9.17188 5.13281 9.17578C5.39453 9.18359 5.68359 9.07812 6.00391 8.85547C8.17969 7.38672 9.30469 6.64453 9.375 6.62891C9.42578 6.61328 9.49609 6.60156 9.54297 6.64453C9.58984 6.68359 9.58594 6.76172 9.57812 6.78516C9.55078 6.91406 8.35156 8.02344 7.73438 8.60156C7.53906 8.78125 7.40234 8.90625 7.375 8.9375C7.3125 9 7.25 9.0625 7.1875 9.12109C6.80859 9.48828 6.52344 9.76172 7.20312 10.2109C7.52734 10.4258 7.78906 10.6055 8.05078 10.7812C8.33594 10.9766 8.62109 11.168 8.98828 11.4102C9.08203 11.4727 9.17188 11.5352 9.25781 11.5977C9.58984 11.8359 9.88672 12.0469 10.2539 12.0117C10.4688 11.9922 10.6914 11.793 10.8008 11.1914C11.0664 9.77344 11.5898 6.70703 11.707 5.44141C11.7148 5.33594 11.7109 5.23047 11.6953 5.125C11.6875 5.04297 11.6445 4.96484 11.582 4.91016C11.4883 4.84766 11.3828 4.8125 11.2695 4.81641C10.9727 4.82031 10.5078 4.98047 8.28516 5.90625Z" fill="#EDF7F6"/>
</svg>
